<?xml version="1.0" standalone="no"?>
<!DOCTYPE svg PUBLIC "-//W3C//DTD SVG 20010904//EN"
 "http://www.w3.org/TR/2001/REC-SVG-20010904/DTD/svg10.dtd">
<svg version="1.0" xmlns="http://www.w3.org/2000/svg"
 width="158.000000pt" height="158.000000pt" viewBox="0 0 158.000000 158.000000"
 preserveAspectRatio="xMidYMid meet">
<metadata>
Created by potrace 1.14, written by Peter Selinger 2001-2017
</metadata>
<g transform="translate(0.000000,158.000000) scale(0.100000,-0.100000)"
fill="#000000" stroke="none">
<path d="M665 1520 c-203 -32 -398 -161 -514 -340 -41 -64 -94 -187 -106 -250
-14 -72 -14 -245 0 -313 67 -312 320 -552 634 -597 529 -78 969 398 850 919
-89 391 -465 643 -864 581z m338 -83 c215 -70 384 -239 454 -454 39 -117 41
-286 7 -403 -131 -447 -636 -646 -1037 -408 -82 48 -189 153 -236 231 -18 31
-47 96 -64 144 -29 82 -31 98 -31 223 0 119 3 144 26 213 80 238 258 402 513
472 83 23 273 14 368 -18z"/>
<path d="M935 1300 c-8 -16 -15 -32 -14 -35 0 -3 -2 -31 -5 -63 -3 -31 -9 -88
-12 -127 -3 -38 -7 -74 -8 -80 -1 -6 -301 -113 -323 -115 -2 0 -3 87 -4 193
-1 217 -5 241 -38 245 -27 4 -47 -19 -57 -68 -4 -19 -9 -42 -11 -50 -3 -17
-11 -137 -12 -191 -1 -31 -5 -37 -26 -42 l-26 -4 21 19 c22 21 27 54 8 60 -24
8 -60 -5 -75 -28 -20 -31 -34 -93 -22 -100 5 -3 9 -2 9 3 0 4 13 17 28 27 l27
19 -23 -25 c-47 -52 -33 -96 36 -105 29 -4 42 -11 43 -22 1 -9 2 -28 3 -43 2
-16 -1 -28 -6 -28 -4 0 -8 9 -8 20 0 11 -3 20 -6 20 -11 0 -105 -104 -120
-133 -11 -20 -12 -32 -4 -47 13 -25 62 -27 86 -3 22 22 44 76 44 108 0 40 20
29 21 -12 1 -21 2 -63 4 -93 3 -53 3 -54 -6 -16 -5 22 -11 41 -13 44 -4 4
-109 -155 -119 -180 -3 -10 2 -27 12 -40 16 -19 23 -21 47 -13 37 13 74 69 75
114 2 70 17 -11 24 -126 7 -119 16 -136 63 -124 41 11 53 75 47 251 -2 80 -6
154 -9 166 -2 11 -6 56 -8 98 l-3 78 134 43 c74 24 145 46 159 50 l24 6 -7
-86 c-3 -47 -8 -96 -11 -108 -2 -12 -5 -85 -5 -162 0 -197 29 -290 101 -328
43 -22 111 -18 148 10 36 27 64 83 51 100 -6 7 -15 11 -19 8 -4 -2 -7 10 -6
28 0 17 -3 33 -9 35 -6 1 -11 -22 -12 -53 -1 -58 -19 -97 -52 -115 -26 -13
-46 7 -63 63 -18 61 -17 459 1 481 7 9 16 14 20 11 4 -2 22 5 40 16 34 21 51
52 43 81 -5 22 -54 58 -77 58 -16 0 -17 8 -11 78 9 101 9 239 1 252 -3 5 -22
10 -40 10 -28 0 -37 -6 -50 -30z m-485 -401 c0 -43 -3 -50 -17 -47 -24 4 -28
43 -9 74 9 13 19 24 21 24 3 0 5 -23 5 -51z m580 18 c0 -12 -5 -29 -10 -37 -8
-11 -10 -4 -8 27 2 42 18 51 18 10z"/>
<path d="M435 1260 c-3 -11 -2 -28 4 -37 9 -16 11 -15 20 10 15 38 14 47 -3
47 -8 0 -17 -9 -21 -20z"/>
<path d="M1068 1268 c-42 -33 -21 -92 42 -118 33 -13 41 -32 13 -29 -40 4 -54
-3 -73 -33 -17 -28 -17 -34 -4 -59 8 -15 30 -40 49 -55 19 -14 35 -35 35 -45
0 -32 16 -21 28 20 16 52 15 100 -3 135 -11 21 -12 32 -4 42 6 8 8 26 5 41 -5
20 -4 24 3 13 8 -12 12 -9 20 14 11 28 7 46 -10 46 -5 0 -9 -10 -9 -22 0 -19
-5 -16 -23 17 -25 43 -44 53 -69 33z"/>
<path d="M355 1207 c-19 -29 -24 -63 -15 -104 5 -18 4 -33 -1 -33 -5 0 -9 6
-9 14 0 24 -26 39 -49 26 -29 -15 -26 -55 8 -114 l29 -50 8 40 c5 21 8 47 7
57 0 9 4 17 9 17 6 0 8 -7 4 -15 -7 -19 8 -19 24 0 7 8 16 12 21 9 13 -8 49
15 49 31 0 8 -4 15 -10 15 -5 0 -10 -4 -10 -9 0 -5 -7 -12 -16 -15 -11 -4 -10
1 6 24 30 42 36 92 15 113 -23 24 -52 21 -70 -6z"/>
<path d="M1185 1180 c-14 -16 -17 -30 -12 -76 7 -68 19 -83 37 -49 7 14 17 25
22 25 14 0 9 -16 -12 -35 -11 -10 -20 -22 -20 -26 0 -28 -46 -122 -72 -148
l-31 -31 31 9 c81 24 200 111 203 150 4 47 -16 70 -60 72 l-26 1 28 10 c15 5
27 16 27 24 0 19 -20 18 -49 -2 l-23 -16 17 32 c31 60 -17 108 -60 60z"/>
<path d="M1042 1153 c2 -11 14 -19 31 -21 34 -4 35 11 2 26 -34 16 -37 15 -33
-5z"/>
<path d="M212 985 c-16 -34 -2 -65 44 -103 32 -27 94 -58 94 -48 0 9 -63 153
-72 164 -18 21 -54 14 -66 -13z"/>
<path d="M1320 948 c-24 -22 -24 -23 -4 -26 29 -4 76 16 72 31 -8 21 -42 19
-68 -5z"/>
<path d="M1205 869 c-39 -23 -88 -47 -110 -54 l-39 -12 24 -14 c36 -20 193
-22 238 -3 73 30 90 66 50 104 -35 32 -83 26 -163 -21z"/>
<path d="M174 866 c-17 -45 22 -75 101 -77 l50 -1 -55 -12 c-71 -15 -100 -32
-100 -56 0 -11 11 -27 25 -36 20 -13 33 -14 65 -6 22 5 37 6 34 1 -3 -5 -11
-9 -18 -9 -18 0 -72 -28 -85 -44 -18 -21 -2 -46 29 -46 33 0 78 47 86 90 3 15
18 34 32 43 15 8 45 34 67 57 39 40 39 41 13 35 -16 -4 -28 -3 -28 2 0 5 -11
10 -25 11 -15 1 -52 15 -83 32 -62 33 -100 38 -108 16z m199 -73 c-7 -2 -21
-2 -30 0 -10 3 -4 5 12 5 17 0 24 -2 18 -5z"/>
<path d="M1031 771 c23 -66 175 -172 266 -187 66 -10 116 50 80 97 -22 29 -74
48 -184 68 -61 10 -124 26 -141 35 l-31 16 10 -29z"/>
<path d="M1305 765 l-39 -12 49 -16 c59 -21 91 -22 98 -3 7 18 -21 42 -48 43
-11 0 -38 -5 -60 -12z"/>
<path d="M1022 593 c5 -145 15 -183 48 -183 34 0 53 44 47 104 -5 49 -77 216
-93 216 -4 0 -5 -62 -2 -137z"/>
<path d="M1085 659 c4 -13 13 -35 20 -49 7 -14 18 -52 25 -85 15 -76 31 -99
63 -91 13 3 29 16 34 28 10 21 11 21 10 -10 0 -19 -3 -28 -8 -21 -5 8 -12 2
-22 -17 -24 -48 -28 -80 -13 -93 20 -17 45 22 41 63 -4 29 -3 30 10 12 19 -26
45 -5 39 30 -6 35 -34 75 -46 68 -6 -4 -8 -1 -6 7 9 24 -29 85 -79 126 -69 57
-77 60 -68 32z"/>
<path d="M1246 533 c41 -69 62 -87 81 -72 33 28 -6 94 -70 118 -46 18 -47 14
-11 -46z"/>
<path d="M264 571 c-46 -8 -58 -45 -24 -76 25 -22 79 -14 106 18 49 56 50 55
-9 59 -30 1 -63 1 -73 -1z"/>
<path d="M1329 550 c29 -25 44 -26 39 -2 -2 11 -14 18 -33 20 l-30 2 24 -20z"/>
<path d="M288 461 c-22 -22 -23 -41 -3 -41 13 0 35 36 35 56 0 9 -16 2 -32
-15z"/>
<path d="M437 404 c-10 -13 -22 -22 -26 -19 -15 8 -71 -16 -71 -31 0 -21 20
-17 48 9 23 20 25 20 17 2 -4 -11 -8 -31 -9 -45 -1 -20 4 -26 26 -28 34 -4 48
25 48 94 0 50 -7 54 -33 18z"/>
<path d="M295 410 c-8 -14 3 -30 21 -30 16 0 16 2 8 24 -7 18 -20 21 -29 6z"/>
<path d="M1020 393 c0 -36 22 -94 37 -100 9 -4 21 1 29 12 15 20 7 43 -29 83
-25 27 -37 28 -37 5z"/>
<path d="M460 291 c-14 -27 -13 -41 5 -41 10 0 15 10 15 30 0 35 -5 38 -20 11z"/>
</g>
</svg>
